<svg xmlns="http://www.w3.org/2000/svg" viewBox="0 0 512 512" role="img" aria-labelledby="title desc">
  <title id="title">PrintFlow POS Icon</title>
  <desc id="desc">Blue rounded square icon with a stylized PF monogram and dark print-flow stroke.</desc>
  <defs>
    <linearGradient id="pf-bg" x1="64" y1="48" x2="448" y2="464" gradientUnits="userSpaceOnUse">
      <stop offset="0" stop-color="#3B82F6"/>
      <stop offset="0.52" stop-color="#2563EB"/>
      <stop offset="1" stop-color="#1D4ED8"/>
    </linearGradient>
    <linearGradient id="pf-mark" x1="142" y1="126" x2="340" y2="330" gradientUnits="userSpaceOnUse">
      <stop offset="0" stop-color="#93C5FD"/>
      <stop offset="0.42" stop-color="#FFFFFF"/>
      <stop offset="1" stop-color="#DBEAFE"/>
    </linearGradient>
    <linearGradient id="pf-flow" x1="118" y1="346" x2="406" y2="224" gradientUnits="userSpaceOnUse">
      <stop offset="0" stop-color="#020617"/>
      <stop offset="1" stop-color="#111827"/>
    </linearGradient>
    <filter id="soft-shadow" x="-20%" y="-20%" width="140%" height="140%">
      <feDropShadow dx="0" dy="20" stdDeviation="24" flood-color="#0F172A" flood-opacity="0.26"/>
    </filter>
  </defs>
  <rect x="48" y="48" width="416" height="416" rx="92" fill="url(#pf-bg)" filter="url(#soft-shadow)"/>
  <path fill="url(#pf-mark)" d="M142 150h145c42 0 74 30 74 70s-32 70-74 70h-65v78h-80V150Zm80 63v18h58c10 0 18-2 24-8 5-5 8-11 8-19h-90Z" opacity="0.96"/>
  <path fill="url(#pf-mark)" d="M222 150h170v70H285c-26 0-46-20-63-70Zm0 132h126v64H222v-64Z" opacity="0.72"/>
  <path fill="url(#pf-flow)" d="M132 383c57-69 116-111 178-125 30-7 61-8 94-2-36 26-72 47-109 64-52 24-106 45-163 63Z"/>
  <path fill="#0B1220" d="M132 383h76v-95h-76v95Zm48-47v-48h28v38c-9 3-19 6-28 10Z" opacity="0.98"/>
</svg>
